<svg xmlns="http://www.w3.org/2000/svg" xmlns:xlink="http://www.w3.org/1999/xlink" version="1.1" id="Layer_1" x="0" y="0" viewBox="0 0 241 281" xml:space="preserve"><defs><rect id="SVGID_1_" width="241" height="281"/></defs><defs><path id="SVGID_2_" d="M0 15C0 6.7 6.7 0 15 0h138.2c9.9 0 23.6 5.8 30.6 12.9l43.8 44.8c6.9 7.1 12.6 20.9 12.6 30.9v176.9c0 8.3-6.7 15-15 15H15c-8.3 0-15-6.7-15-15V15L0 15zM0 15"/></defs><defs><rect id="SVGID_3_" y="-511" width="612" height="792"/></defs><clipPath id="SVGID_4_"><use xlink:href="#SVGID_1_"/></clipPath><clipPath id="SVGID_5_" clip-path="url(#SVGID_4_)"><use xlink:href="#SVGID_2_"/></clipPath><clipPath id="SVGID_6_" clip-path="url(#SVGID_5_)"><use xlink:href="#SVGID_3_"/></clipPath><path d="M0 15C0 6.7 6.7 0 15 0h138.2c9.9 0 23.6 5.8 30.6 12.9l43.8 44.8c6.9 7.1 12.6 20.9 12.6 30.9v176.9c0 8.3-6.7 15-15 15H15c-8.3 0-15-6.7-15-15V15L0 15zM0 15" style="clip-path:url(#SVGID_6_);fill:none;stroke-width:42;stroke:#000"/><defs><rect id="SVGID_7_" width="241" height="281"/></defs><defs><path id="SVGID_8_" d="M161 1h-21v85.5c0 7.7 6.3 14 14 14h85v-21h-78V1L161 1zM161 1"/></defs><defs><rect id="SVGID_9_" y="-511" width="612" height="792"/></defs><clipPath id="SVGID_10_"><use xlink:href="#SVGID_7_"/></clipPath><clipPath id="SVGID_11_" clip-path="url(#SVGID_10_)"><use xlink:href="#SVGID_8_"/></clipPath><clipPath id="SVGID_12_" clip-path="url(#SVGID_11_)"><use xlink:href="#SVGID_9_"/></clipPath><rect x="135" y="-4" width="109" height="109.5" clip-path="url(#SVGID_12_)"/><defs><rect id="SVGID_13_" width="241" height="281"/></defs><defs><path id="SVGID_14_" d="M130.5 159.5V119h-21v40.5H69v21h40.5V221h21v-40.5H171v-21H130.5L130.5 159.5 130.5 159.5zM130.5 159.5"/></defs><defs><rect id="SVGID_15_" y="-511" width="612" height="792"/></defs><clipPath id="SVGID_16_"><use xlink:href="#SVGID_13_"/></clipPath><clipPath id="SVGID_17_" clip-path="url(#SVGID_16_)"><use xlink:href="#SVGID_14_"/></clipPath><clipPath id="SVGID_18_" clip-path="url(#SVGID_17_)"><use xlink:href="#SVGID_15_"/></clipPath><rect x="64" y="114" width="112" height="112" clip-path="url(#SVGID_18_)"/></svg>